<svg width="161" height="124" viewBox="0 0 161 124" fill="none" xmlns="http://www.w3.org/2000/svg">
<path d="M43.7988 0C50.8371 0 57.8754 0 65.127 0C65.127 25.2087 65.127 50.4174 65.127 76.39C69.2745 76.39 73.4221 76.39 77.6953 76.39C77.6953 84.1965 77.6953 92.0031 77.6953 100.046C73.5478 100.046 69.4002 100.046 65.127 100.046C65.127 107.853 65.127 115.659 65.127 123.702C58.8428 123.702 52.5586 123.702 46.084 123.702C46.084 115.896 46.084 108.089 46.084 100.046C30.8763 100.046 15.6686 100.046 0 100.046C0 77.373 0 77.373 7.21252 64.8391C8.95615 61.7921 10.6882 58.7353 12.4017 55.66C12.6047 55.2956 12.8078 54.9313 13.0169 54.5559C13.6294 53.4559 14.2415 52.3556 14.8535 51.2552C17.5959 46.3241 20.3541 41.4098 23.1437 36.5232C25.483 32.4214 27.7867 28.2868 30.0879 24.1491C32.8717 19.1435 35.6703 14.1535 38.5019 9.19296C39.9795 6.60454 41.4466 4.00727 42.9017 1.39766C43.418 0.492839 43.418 0.492839 43.7988 0Z" fill="#097B35"/>
<path d="M90.6445 0C113.645 0 136.645 0 160.342 0C160.342 7.9692 160.342 15.9384 160.342 24.1491C144.631 24.1491 128.921 24.1491 112.734 24.1491C112.734 34.2326 112.734 44.316 112.734 54.7051C125.805 54.7051 138.877 54.7051 152.344 54.7051C152.344 62.349 152.344 69.9929 152.344 77.8685C139.273 77.8685 126.202 77.8685 112.734 77.8685C112.734 92.9937 112.734 108.119 112.734 123.702C105.445 123.702 98.1551 123.702 90.6445 123.702C90.6445 82.8807 90.6445 42.0588 90.6445 0Z" fill="#0A7B35"/>
<path d="M50.2324 29C50.3581 29 50.4838 29 50.6133 29C50.6133 43.6373 50.6133 58.2746 50.6133 73.3555C42.8209 73.3555 35.0285 73.3555 27 73.3555C27.6151 71.7636 28.2498 70.3732 29.0084 68.8987C29.2574 68.4146 29.5063 67.9304 29.7628 67.4315C30.0294 66.9164 30.2959 66.4012 30.5706 65.8705C30.8457 65.3375 31.1209 64.8046 31.4043 64.2555C33.1378 60.9096 34.9019 57.597 36.7088 54.3171C38.9976 50.1564 41.2044 45.9234 43.4221 41.6993C44.579 39.497 45.739 37.2975 46.8999 35.0989C47.1044 34.7108 47.3088 34.3227 47.5194 33.9229C47.7097 33.5626 47.9 33.2023 48.096 32.831C48.2611 32.5181 48.4262 32.2051 48.5963 31.8827C49.1265 30.9037 49.6582 29.9367 50.2324 29Z" fill="white"/>
</svg>
