<svg width="105" height="152" viewBox="0 0 105 152" fill="none" xmlns="http://www.w3.org/2000/svg">
<path d="M52.1777 0C53.6545 0.813426 54.1387 1.89911 54.9152 3.84635C58.8532 13.0743 64.4912 17.9158 71.2445 22.0822C73.0117 23.2012 74.2808 24.3581 75.2673 26.8214C76.4281 29.069 77.7848 30.1145 79.4613 31.4791C80.3613 32.4193 80.3613 32.4193 80.6782 33.6341C80.6993 33.9585 80.7204 34.2829 80.7422 34.6172C78.184 34.7929 76.2643 34.3311 73.8867 32.9687C76.0505 39.0637 81.6124 41.6636 85.6934 44.5078C85.5677 45.0518 85.442 45.5958 85.3125 46.1562C81.9485 46.4292 79.1951 45.7371 76.0052 44.2331C75.213 43.8692 74.4201 43.5084 73.6264 43.1513C73.2825 42.9901 72.9386 42.829 72.5843 42.663C71.5825 42.303 70.7251 42.2444 69.6973 42.3099C69.7184 43.3642 69.7184 43.3642 70.0781 44.5078C71.0646 45.4106 71.0646 45.4106 72.2919 46.1906C74.2032 47.5551 75.7531 49.121 77.2906 51.2733C81.9668 57.7869 87.6721 62.9362 93.553 66.8583C94.4531 67.5859 94.4531 67.5859 95.2148 69.2344C95.2148 69.7784 95.2148 70.3223 95.2148 70.8828C93.1043 72.4053 90.0922 71.4394 87.8595 70.8828C85.223 70.2336 82.6482 70.2295 79.9805 70.3333C79.7291 71.0586 79.4777 71.784 79.2188 72.5312C82.7653 74.0887 86.3041 74.8444 89.9728 75.5319C92.3635 76.0066 94.5687 76.4515 96.7383 78.026C97.0056 79.1808 97.0056 79.1808 97.1191 80.224C94.2676 82.9667 89.618 82.0497 86.2408 82.1815C85.6693 82.2053 85.0978 82.2292 84.5262 82.2534C83.138 82.3117 81.7497 82.3674 80.3613 82.4219C80.3613 83.1472 80.3613 83.8725 80.3613 84.6198C81.8202 85.5683 83.132 85.9355 84.7174 86.1995C88.0877 86.9246 89.7559 89.32 92.1992 92.5464C93.4492 94.1373 94.7364 95.6375 96.048 97.1204C96.265 97.3663 96.482 97.6121 96.7056 97.8654C97.8207 99.1173 98.9491 100.311 100.115 101.463C101.309 102.753 101.309 102.753 101.666 104.298C101.674 104.695 101.681 105.091 101.689 105.5C100.802 106.729 100.255 107.131 99.0249 107.374C96.6297 107.299 94.5087 105.141 92.4492 103.559C90.4352 102.081 89.1069 101.155 86.8359 102.203C85.7243 103.531 85.7243 103.531 84.9316 104.951C85.4715 106.922 85.9917 107.551 87.3195 108.415C87.6543 108.641 87.9892 108.867 88.3342 109.1C88.696 109.34 89.0578 109.58 89.4305 109.827C92.5941 112.012 95.5628 114.425 98.476 117.245C98.9747 117.725 98.9747 117.725 99.4836 118.215C101.135 119.842 102.68 121.421 103.975 123.633C104.117 125.419 104.117 125.419 103.975 126.93C103.594 127.479 103.594 127.479 102.308 127.72C99.9993 127.666 98.2912 125.836 96.3574 124.182C95.379 123.389 94.3933 122.616 93.4058 121.847C93.172 121.66 92.9383 121.472 92.6975 121.279C90.0325 119.195 87.6743 118.535 84.6996 118.576C84.0678 118.57 83.436 118.564 82.8042 118.557C81.8223 118.551 80.8407 118.55 79.8588 118.561C73.2363 118.618 73.2363 118.618 70.1192 115.612C68.8949 114.437 68.1184 114.165 66.6504 114.292C65.6303 115.475 64.9508 116.448 64.3652 118.138C64.2631 119.978 64.277 121.822 64.27 123.667C64.2622 124.171 64.2543 124.675 64.2462 125.194C64.2245 130.73 65.2042 134.909 67.793 139.018C68.4871 139.975 69.202 140.873 69.9383 141.761C71.0922 143.173 72.2029 144.648 73.3154 146.127C73.5214 146.4 73.7275 146.674 73.9397 146.955C74.4302 147.606 74.9202 148.257 75.4102 148.909C75.2845 149.634 75.1588 150.359 75.0293 151.107C73.3834 150.82 72.5569 150.053 71.3159 148.497C67.2201 143.686 64.6097 143.027 59.4141 143.414C59.5397 144.865 59.6654 146.315 59.7949 147.81C57.7155 147.576 56.598 146.972 55.0104 145.028C54.6721 144.625 54.3338 144.222 53.9853 143.807C53.0858 142.524 52.5966 141.513 51.9471 139.993C51.2308 138.578 50.8459 138.007 49.6783 137.471C48.5021 137.262 47.3641 137.203 46.1792 137.198C45.7855 137.169 45.3917 137.139 44.986 137.109C41.3785 136.981 38.6713 138.696 35.9436 142.075C33.1063 145.348 31.1261 146.304 27.4725 146.561C25.4102 146.82 23.8154 147.799 22.0898 149.458C21.7128 149.458 21.3357 149.458 20.9473 149.458C21.0653 147.869 21.286 147.316 22.1122 146.217C23.4251 144.864 24.7751 143.918 26.2317 142.933C28.4052 141.409 30.3323 139.96 31.9922 137.37C32.2121 137.031 32.4321 136.693 32.6587 136.344C35.7259 131.442 38.3646 126.998 38.2198 120.076C38.0318 118.126 37.6031 117.198 36.5625 115.94C34.5 114.564 32.7087 114.261 30.4688 114.841C29.3439 115.604 28.2951 116.447 27.2259 117.356C24.9048 119.263 22.4819 120.482 19.9475 121.675C19.55 121.863 19.1525 122.051 18.7429 122.244C15.006 123.97 10.6435 125.793 6.92688 123.083C6.32596 122.539 6.32596 122.539 5.71289 121.984C5.61768 120.714 5.61768 120.714 5.71289 119.237C7.00017 117.331 8.64587 117.015 10.3784 116.455C14.9954 114.852 19.2801 112.103 23.6133 109.346C23.6133 107.714 23.6133 106.082 23.6133 104.401C20.9125 104.635 18.9781 105.569 16.5674 107.286C6.57024 114.055 6.57024 114.055 1.52344 112.643C0.638237 111.802 0.638237 111.802 0 110.995C0.0699234 109.98 0.0699234 109.98 0.380859 108.797C1.20358 108.112 1.20358 108.112 2.30896 107.458C4.48851 105.994 6.19062 104.165 8.02185 101.928C10.3038 99.1567 12.5285 96.9157 15.2344 95.0599C15.9327 94.5449 16.6309 94.0297 17.3291 93.5145C18.2861 92.8219 19.1671 92.2528 20.1855 91.763C20.5791 89.7287 20.6964 88.8178 19.9951 86.9207C18.7558 85.3563 18.0157 85.1278 16.377 85.1693C15.3575 86.1353 15.3575 86.1353 14.4727 87.3672C13.032 88.3921 11.8347 88.6292 10.2356 88.6378C9.84185 88.6471 9.44811 88.6563 9.04243 88.6658C7.99805 88.4661 7.99805 88.4661 7.28542 87.717C6.85547 86.8177 6.85547 86.8177 6.87927 85.444C7.4463 83.2625 8.37565 82.6738 9.80713 81.735C10.9055 80.8817 11.5261 80.1613 12.4077 78.9404C14.0874 76.7848 15.8268 75.6972 17.9004 74.5231C20.7907 72.776 23.1084 71.0764 24.7559 67.0365C25.2028 65.102 25.2134 63.5712 25.1367 61.5417C24.4444 60.3094 24.4444 60.3094 23.4511 60.3161C23.0883 60.3239 22.7255 60.3316 22.3517 60.3397C21.9918 60.3432 21.632 60.3468 21.2612 60.3504C20.2314 60.4388 19.2888 60.6862 18.2812 60.9922C16.8768 61.0952 16.8768 61.0952 15.6152 60.9922C14.8535 59.8932 14.8535 59.8932 14.7092 58.5646C14.8535 57.1458 14.8535 57.1458 15.4858 56.1907C15.7877 55.9052 16.0897 55.6198 16.4008 55.3257C16.7444 55.0006 17.0881 54.6754 17.4422 54.3405C19.0499 52.9685 20.6934 51.7044 22.3689 50.5128C24.849 48.7013 26.313 46.226 27.8979 42.9967C29.305 40.1425 29.305 40.1425 29.707 39.5625C30.8634 39.4056 32.0198 39.316 33.1794 39.2212C34.3507 39.1177 34.3507 39.1177 35.4199 37.9141C35.6956 36.7825 35.6956 36.7825 35.8008 35.7161C35.4002 35.7501 34.9995 35.7841 34.5868 35.8192C33.0522 35.7103 32.3903 35.4949 31.2305 34.0677C30.921 32.591 30.921 32.591 30.8496 31.3203C32.7817 28.8412 35.0369 27.3788 37.3436 25.7633C39.3396 24.3075 40.5937 22.969 41.8945 20.3307C40.8891 20.3307 39.8836 20.3307 38.8477 20.3307C38.8477 19.6054 38.8477 18.8801 38.8477 18.1328C39.3997 17.4312 39.3997 17.4312 40.1702 16.8321C40.4503 16.6061 40.7304 16.3802 41.019 16.1474C41.3158 15.9186 41.6126 15.6898 41.9183 15.4541C44.8401 13.164 47.5616 10.9254 49.2023 6.59375C49.3859 6.12414 49.5695 5.65453 49.7587 5.17068C50.0135 4.51514 50.0135 4.51514 50.2734 3.84635C51.5804 0.861752 51.5804 0.861751 52.1777 0Z" fill="#197539"/>
<path d="M27.0172 79.5372C27.285 79.5258 27.5528 79.5145 27.8288 79.5028C29.5398 79.4843 30.6518 79.7524 31.9922 81.323C32.1179 81.867 32.2436 82.4109 32.373 82.9714C30.5918 85.8847 28.1033 87.1242 25.4417 87.4789C24.1893 87.3377 23.6155 86.8208 22.7087 85.5814C22.0945 84.0816 21.774 83.0589 21.709 81.323C23.1742 79.209 25.0433 79.5579 27.0172 79.5372Z" fill="#F3F8F4"/>
<path d="M74.6484 91.7632C75.5768 92.6904 75.5768 92.6904 76.1719 93.9611C76.1719 95.3691 76.1719 95.3692 75.791 96.7085C74.5271 98.5062 73.5048 98.5801 71.7682 98.563C71.3357 98.5672 70.9031 98.5715 70.4575 98.5759C69.3164 98.3569 69.3164 98.3569 68.5919 97.5885C68.1738 96.7085 68.1738 96.7085 68.1738 95.6095C68.8417 93.6824 70.0939 93.1188 71.3873 92.2096C72.5664 91.6703 73.4186 91.5367 74.6484 91.7632Z" fill="#F4F9F6"/>
<path d="M64.0065 54.334C66.4223 54.6888 66.4223 54.6888 67.4357 55.8408C67.9217 57.617 67.8916 59.1024 67.7928 60.9921C67.4119 61.5416 67.4119 61.5416 66.1741 61.679C64.6796 61.5352 64.0159 61.1887 62.8416 59.8932C62.3155 58.3752 62.3881 57.1747 62.4608 55.4973C63.2225 54.3984 63.2225 54.3984 64.0065 54.334Z" fill="#F7F9F7"/>
<path d="M27.8027 56.0469C30.3896 56.1091 30.3896 56.1091 31.4878 57.2725C32.3649 58.6589 32.7646 59.545 32.7063 61.4386C32.373 62.6406 32.373 62.6406 31.9922 63.1901C30.9448 63.4305 30.9448 63.4305 29.707 63.1901C28.1928 61.1511 27.5208 59.6654 27.4219 56.5964C27.5476 56.415 27.6732 56.2337 27.8027 56.0469Z" fill="#F6FAF7"/>
<path d="M84.1699 95.0601C84.4794 96.5368 84.4794 96.5368 84.5508 98.3569C83.7871 99.9563 83.1805 100.878 81.8669 101.435C81.0516 101.619 81.0516 101.619 79.5996 101.654C79.3482 101.291 79.0969 100.928 78.8379 100.555C78.8379 99.2498 78.8379 99.2498 79.2188 97.8075C80.8791 95.9327 82.0465 95.0601 84.1699 95.0601Z" fill="#F4F8F5"/>
<path d="M52.1777 37.3646C52.3034 38.2713 52.4291 39.1779 52.5586 40.112C50.9426 42.4434 49.867 43.1819 47.5896 43.439C46.8457 43.4089 46.8457 43.4089 46.084 42.8594C46.2081 41.1876 46.4568 40.6724 47.3218 39.4939C48.9601 37.8823 50.1864 37.2005 52.1777 37.3646Z" fill="#F3F7F4"/>
<path d="M35.0391 96.7085C36.2209 96.7982 36.8542 97.1676 37.8241 98.1509C38.7083 99.9463 38.6298 101.147 38.4668 103.302C38.0897 104.118 38.0897 104.118 37.7051 104.951C37.0386 104.882 37.0386 104.882 36.1816 104.401C34.9951 102.298 34.3633 100.536 34.2773 97.8075C34.5287 97.4448 34.7801 97.0821 35.0391 96.7085Z" fill="#F6FAF7"/>
<path d="M53.7253 74.7635C54.4632 75.2787 54.4632 75.2787 54.9393 76.1716C55.3244 77.9309 55.2968 79.4909 55.2249 81.3229C54.8441 81.8724 54.8441 81.8724 53.9395 82.0098C52.9398 81.8724 52.9398 81.8724 52.2495 81.2886C51.5419 79.623 51.6558 78.282 51.7972 76.3776C52.3835 75.0243 52.6149 74.715 53.7253 74.7635Z" fill="#F2F7F3"/>
<path d="M37.3718 53.6084C38.4668 53.8488 38.4668 53.8488 39.2285 54.9478C39.1872 56.6753 38.7376 57.3388 37.9669 58.6911C36.9434 59.8931 36.9434 59.8931 36.1102 59.9618C35.1462 59.0985 34.9844 58.1256 34.6582 56.5962C35.8674 53.9123 35.8674 53.9123 37.3718 53.6084Z" fill="#F5F8F5"/>
<path d="M50.6064 98.2539C51.7966 98.3569 51.7966 98.3569 52.9392 99.4559C53.0942 101.209 53.1352 102.291 52.4869 103.817C51.7966 104.401 51.7966 104.401 50.8206 104.367C49.8923 103.852 49.8923 103.852 49.3924 102.89C49.0956 101.489 49.0487 100.364 49.1306 98.9064C49.5114 98.3569 49.5114 98.3569 50.6064 98.2539Z" fill="#F6F9F7"/>
<path d="M71.9109 67.4487C73.2497 67.6002 73.7559 67.7985 74.6483 69.2345C74.8149 70.6426 74.8149 70.6426 74.6483 71.9819C73.5057 73.0809 73.5057 73.0809 72.3393 72.9435C71.2206 72.5314 71.2206 72.5314 70.4588 71.4325C70.3874 69.7497 70.3874 69.7497 70.4588 68.1356C70.8397 67.5861 70.8397 67.5861 71.9109 67.4487Z" fill="#F1F6F2"/>
<path d="M69.6973 142.315C71.1823 143.203 72.254 144.666 73.4106 146.23C73.6036 146.487 73.7965 146.744 73.9953 147.009C74.4684 147.64 74.9395 148.274 75.4102 148.909C75.2845 149.634 75.1588 150.359 75.0293 151.107C73.2154 150.843 72.277 149.736 70.9113 148.05C70.5396 147.596 70.168 147.142 69.785 146.674C69.5047 146.324 69.2244 145.973 68.9355 145.612C69.1869 145.43 69.4383 145.249 69.6973 145.062C70.697 145.577 70.697 145.577 71.6016 146.161C70.9731 144.892 70.3447 143.623 69.6973 142.315Z" fill="#0D601B"/>
<path d="M43.418 43.4089C43.2757 44.8397 43.1471 45.4656 42.387 46.4418C42.1223 46.6762 41.8577 46.9107 41.5851 47.1522C41.3234 47.3938 41.0617 47.6353 40.7921 47.8842C39.8406 48.442 39.415 48.3058 38.4668 47.8047C38.5962 46.0627 38.8472 45.6075 39.776 44.4048C41.2381 42.9128 41.6906 42.8187 43.418 43.4089Z" fill="#F7FAF7"/>
<path d="M56.3196 35.5786C57.5098 35.716 57.5098 35.716 58.2477 36.4028C58.6523 37.3644 58.6523 37.3644 58.5333 38.5664C58.4037 39.0594 58.4037 39.0594 58.2715 39.5623C55.7483 39.6997 55.7483 39.6997 54.4629 38.4634C54.8862 35.7584 54.8862 35.7584 56.3196 35.5786Z" fill="#F6FAF7"/>
<path d="M52.1777 53.2994C52.4291 53.4807 52.6805 53.662 52.9395 53.8489C52.8138 54.7555 52.6881 55.6621 52.5586 56.5962C50.0354 57.2831 50.0354 57.2831 48.75 56.0468C48.8928 54.9822 48.8928 54.9822 49.1309 53.8489C50.1741 53.0963 51.0241 53.23 52.1777 53.2994Z" fill="#F6F9F7"/>
<path d="M58.1763 52.9215C58.6005 53.1085 58.6005 53.1085 59.0332 53.2993C59.1046 54.6043 59.1046 54.6043 59.0332 56.0467C57.8906 57.1457 57.8906 57.1457 56.8671 56.9396C56.5764 56.8263 56.2858 56.7129 55.9863 56.5962C55.8606 55.8709 55.735 55.1456 55.6055 54.3983C56.5404 53.1493 56.8766 52.7085 58.1763 52.9215Z" fill="#EDF4EF"/>
<path d="M47.2266 71.4321C47.8647 71.5893 48.5001 71.7716 49.1309 71.9816C49.4392 73.5832 49.5949 74.4329 49.1547 75.9997C48.9544 76.4587 48.9544 76.4587 48.75 76.9269C48.4986 76.9269 48.2473 76.9269 47.9883 76.9269C47.6112 75.295 47.2342 73.663 46.8457 71.9816C46.9714 71.8003 47.0971 71.619 47.2266 71.4321Z" fill="#F8FAF8"/>
<path d="M34.2776 28.0234C34.529 28.2048 34.7803 28.3861 35.0393 28.5729C34.8013 29.6375 34.8013 29.6375 34.2776 30.7708C33.0874 31.1829 33.0874 31.1829 31.9924 31.3203C31.9924 32.0456 31.9924 32.7709 31.9924 33.5182C33.6892 34.0622 33.6892 34.0622 35.4202 34.6172C35.4202 34.7985 35.4202 34.9798 35.4202 35.1667C32.6443 35.4337 32.6443 35.4337 31.3973 34.2051C30.8499 32.9687 30.8499 32.9687 30.9123 31.8891C31.3265 30.4342 31.8027 30.0265 32.7303 29.2254C33.0009 28.9839 33.2714 28.7424 33.5501 28.4935C33.7902 28.3384 34.0302 28.1833 34.2776 28.0234Z" fill="#0E5E17"/>
<path d="M42.656 100.555C43.5986 100.827 43.5986 100.827 44.5603 101.104C44.686 102.192 44.8117 103.28 44.9412 104.401C44.2271 104.744 44.2271 104.744 43.4177 104.951C42.656 103.852 42.656 103.852 42.6084 102.134C42.6241 101.613 42.6398 101.092 42.656 100.555Z" fill="#F2F7F2"/>
<path d="M77.3145 43.9585C78.3065 44.1281 79.2982 44.3002 80.2899 44.4736C80.571 44.5214 80.8521 44.5693 81.1416 44.6185C82.3294 44.8279 83.4124 45.0595 84.5508 45.6069C84.6765 45.0629 84.8021 44.519 84.9316 43.9585C85.183 44.1398 85.4344 44.3212 85.6934 44.508C85.5677 45.052 85.442 45.5959 85.3125 46.1564C82.4067 46.3479 80.0092 46.1574 77.3145 44.508C77.3145 44.3266 77.3145 44.1453 77.3145 43.9585Z" fill="#176A24"/>
<path d="M63.6035 36.8153C63.7292 37.3593 63.8549 37.9033 63.9844 38.4638C63.8587 38.8264 63.733 39.1891 63.6035 39.5627C62.7237 39.3814 61.8439 39.2001 60.9375 39.0132C60.9375 38.2879 60.9375 37.5626 60.9375 36.8153C61.9531 36.0827 62.5245 36.4466 63.6035 36.8153Z" fill="#EFF6F0"/>
<path d="M39.6094 74.1797C41.0138 74.4535 41.7441 74.7845 42.6562 76.3776C42.5306 76.9216 42.4049 77.4656 42.2754 78.026C41.3708 77.8543 41.3708 77.8543 40.3711 77.4766C39.6094 75.8281 39.6094 75.8281 39.6094 74.1797Z" fill="#F5F9F6"/>
<path d="M38.8477 30.2212C39.657 30.4272 39.657 30.4272 40.3711 30.7707C39.8054 33.3553 39.8054 33.3553 38.8239 34.1706C38.5803 34.3179 38.3368 34.4652 38.0859 34.617C37.9603 34.9797 37.8346 35.3423 37.7051 35.716C37.9907 31.4575 37.9907 31.4575 38.8477 30.2212Z" fill="#EBF3ED"/>
<path d="M72.3633 146.711C73.3789 147.444 74.3945 148.176 75.4102 148.909C75.4102 149.453 75.4102 149.997 75.4102 150.557C74.2099 150.37 73.6552 150.238 72.8156 148.943C72.3633 147.81 72.3633 147.81 72.3633 146.711Z" fill="#1F7A3F"/>
<path d="M69.3164 143.414C70.5664 143.655 71.1629 144.252 71.9824 145.612C71.8567 145.975 71.7311 146.337 71.6016 146.711C70.7218 146.348 69.842 145.986 68.9355 145.612C68.9355 143.964 68.9355 143.964 69.3164 143.414Z" fill="#1C793C"/>
<path d="M23.9941 144.513C24.3712 144.695 24.7482 144.876 25.1367 145.063C24.9168 145.242 24.6968 145.421 24.4702 145.606C24.046 145.966 24.046 145.966 23.6133 146.333C23.3305 146.569 23.0477 146.805 22.7563 147.048C22.5364 147.3 22.3165 147.551 22.0898 147.81C22.0898 148.354 22.0898 148.898 22.0898 149.458C21.7128 149.458 21.3357 149.458 20.9473 149.458C21.0766 147.716 21.3276 147.261 22.2565 146.059C23.2324 145.063 23.2324 145.063 23.9941 144.513Z" fill="#0A5A13"/>
<path d="M28.1836 141.766C28.1836 142.31 28.1836 142.854 28.1836 143.414C27.9322 143.414 27.6809 143.414 27.4219 143.414C27.2962 143.958 27.1705 144.502 27.041 145.062C26.4126 145.062 25.7842 145.062 25.1367 145.062C25.011 144.7 24.8854 144.337 24.7559 143.964C25.887 143.238 27.0182 142.513 28.1836 141.766Z" fill="#136B28"/>
<path d="M57.1289 78.5757C57.883 78.8477 57.883 78.8477 58.6523 79.1252C58.5267 80.0318 58.401 80.9384 58.2715 81.8726C57.7687 81.5099 57.266 81.1472 56.748 80.7736C56.8737 80.0483 56.9994 79.323 57.1289 78.5757Z" fill="#E2EEE4"/>
<path d="M75.791 50.0024C77.0156 50.7764 77.8179 51.7077 78.7427 53.0933C79.0932 53.6139 79.0932 53.6139 79.4508 54.145C79.713 54.5424 79.713 54.5424 79.9805 54.9478C78.3366 54.9478 77.7228 53.7759 76.5527 52.2004C76.5527 51.8377 76.5527 51.475 76.5527 51.1014C76.3014 51.1014 76.05 51.1014 75.791 51.1014C75.791 50.7387 75.791 50.3761 75.791 50.0024Z" fill="#176824"/>
<path d="M79.5996 32.4194C79.9767 32.6008 80.3537 32.7821 80.7422 32.9689C80.7422 33.5129 80.7422 34.0569 80.7422 34.6174C79.611 34.6174 78.4799 34.6174 77.3145 34.6174C77.1888 34.2547 77.0631 33.892 76.9336 33.5184C78.2533 33.2464 78.2533 33.2464 79.5996 32.9689C79.5996 32.7876 79.5996 32.6063 79.5996 32.4194Z" fill="#11651D"/>
<path d="M34.2773 28.0234C34.5287 28.2048 34.7801 28.3861 35.0391 28.5729C34.7296 29.6375 34.7296 29.6375 34.2773 30.7708C33.9003 30.9522 33.5232 31.1335 33.1348 31.3203C32.8834 30.9577 32.632 30.595 32.373 30.2214C32.9954 29.2826 33.4658 28.6089 34.2773 28.0234Z" fill="#0F6B28"/>
<path d="M64.3652 37.3647C64.4909 37.3647 64.6166 37.3647 64.7461 37.3647C64.7461 38.2714 64.7461 39.178 64.7461 40.1121C64.369 40.2935 63.992 40.4748 63.6035 40.6616C63.2265 40.299 62.8494 39.9363 62.4609 39.5627C62.838 39.5627 63.215 39.5627 63.6035 39.5627C63.8549 38.8374 64.1063 38.112 64.3652 37.3647Z" fill="#267B43"/>
</svg>
